<?xml version="1.0" encoding="UTF-8"?> <svg xmlns="http://www.w3.org/2000/svg" xmlns:xlink="http://www.w3.org/1999/xlink" width="350" zoomAndPan="magnify" viewBox="0 0 262.5 74.999997" height="100" preserveAspectRatio="xMidYMid meet"><defs><g></g><clipPath id="01c96c3dde"><path d="M 107 17 L 146 17 L 146 27 L 107 27 Z M 107 17 " clip-rule="nonzero"></path></clipPath><clipPath id="d01e789063"><path d="M 103.878906 11.777344 L 139.148438 1.707031 L 145.929688 25.460938 L 110.660156 35.53125 Z M 103.878906 11.777344 " clip-rule="nonzero"></path></clipPath><clipPath id="d7bcd51ef2"><path d="M 103.878906 11.777344 L 139.148438 1.707031 L 145.929688 25.460938 L 110.660156 35.53125 Z M 103.878906 11.777344 " clip-rule="nonzero"></path></clipPath><clipPath id="f1d7da1ff5"><path d="M 107 1 L 140 1 L 140 24 L 107 24 Z M 107 1 " clip-rule="nonzero"></path></clipPath><clipPath id="edfe32934e"><path d="M 103.878906 11.777344 L 139.148438 1.707031 L 145.929688 25.460938 L 110.660156 35.53125 Z M 103.878906 11.777344 " clip-rule="nonzero"></path></clipPath><clipPath id="6bc3641092"><path d="M 103.878906 11.777344 L 139.148438 1.707031 L 145.929688 25.460938 L 110.660156 35.53125 Z M 103.878906 11.777344 " clip-rule="nonzero"></path></clipPath></defs><g fill="#000000" fill-opacity="1"><g transform="translate(4.898178, 51.8403)"><g><path d="M 15.6875 -19.578125 L 15.6875 -16.328125 L 10.046875 -16.328125 L 10.046875 0 L 6.1875 0 L 6.1875 -16.328125 L 0.53125 -16.328125 L 0.53125 -19.578125 Z M 15.6875 -19.578125 "></path></g></g></g><g fill="#000000" fill-opacity="1"><g transform="translate(18.654175, 51.8403)"><g><path d="M 18.78125 0 L 14.71875 0 L 13.25 -4.515625 L 5.75 -4.515625 L 4.265625 0 L 0.296875 0 L 7.0625 -19.578125 L 12.03125 -19.578125 Z M 9.3125 -15.484375 L 6.78125 -7.765625 L 12.171875 -7.765625 L 9.640625 -15.484375 Z M 9.3125 -15.484375 "></path></g></g></g><g fill="#000000" fill-opacity="1"><g transform="translate(35.261599, 51.8403)"><g><path d="M 4.296875 0 L 0.328125 0 L 6.125 -10.0625 L 0.609375 -19.578125 L 4.71875 -19.578125 L 8.78125 -12.5625 L 9.125 -12.5625 L 13.25 -19.578125 L 17.15625 -19.578125 L 11.640625 -10.0625 L 17.4375 0 L 13.34375 0 L 8.984375 -7.546875 L 8.65625 -7.546875 Z M 4.296875 0 "></path></g></g></g><g fill="#000000" fill-opacity="1"><g transform="translate(50.557098, 51.8403)"><g><path d="M 6.40625 0 L 2.546875 0 L 2.546875 -19.578125 L 6.40625 -19.578125 Z M 6.40625 0 "></path></g></g></g><g fill="#ffbd59" fill-opacity="1"><g transform="translate(57.064437, 51.8403)"><g><path d="M 11.640625 0 L 6.96875 0 L 0.34375 -19.578125 L 4.453125 -19.578125 L 9.21875 -4.984375 L 9.546875 -4.984375 L 14.234375 -19.578125 L 18.234375 -19.578125 Z M 11.640625 0 "></path></g></g></g><g fill="#ffbd59" fill-opacity="1"><g transform="translate(73.176542, 51.8403)"><g><path d="M 18.78125 0 L 14.71875 0 L 13.25 -4.515625 L 5.75 -4.515625 L 4.265625 0 L 0.296875 0 L 7.0625 -19.578125 L 12.03125 -19.578125 Z M 9.3125 -15.484375 L 6.78125 -7.765625 L 12.171875 -7.765625 L 9.640625 -15.484375 Z M 9.3125 -15.484375 "></path></g></g></g><g fill="#ffbd59" fill-opacity="1"><g transform="translate(89.783965, 51.8403)"><g><path d="M 6.296875 0 L 2.546875 0 L 2.546875 -19.578125 L 6.96875 -19.578125 L 14.828125 -6.96875 L 15.1875 -7.015625 L 15.1875 -19.578125 L 18.90625 -19.578125 L 18.90625 0 L 14.9375 0 L 6.625 -13.46875 L 6.296875 -13.421875 Z M 6.296875 0 "></path></g></g></g><g fill="#000000" fill-opacity="1"><g transform="translate(108.774533, 51.8403)"><g><path d="M 2.546875 0 L 2.546875 -19.578125 L 10.90625 -19.578125 C 12.101562 -19.578125 13.117188 -19.382812 13.953125 -19 C 14.785156 -18.625 15.414062 -18.082031 15.84375 -17.375 C 16.28125 -16.675781 16.5 -15.851562 16.5 -14.90625 C 16.5 -14.039062 16.285156 -13.273438 15.859375 -12.609375 C 15.441406 -11.953125 14.84375 -11.421875 14.0625 -11.015625 L 14.0625 -10.734375 C 15.289062 -10.410156 16.238281 -9.828125 16.90625 -8.984375 C 17.582031 -8.140625 17.921875 -7.097656 17.921875 -5.859375 C 17.921875 -3.984375 17.351562 -2.535156 16.21875 -1.515625 C 15.09375 -0.503906 13.414062 0 11.1875 0 Z M 10.09375 -11.765625 C 11.894531 -11.765625 12.796875 -12.578125 12.796875 -14.203125 C 12.796875 -15.035156 12.570312 -15.65625 12.125 -16.0625 C 11.6875 -16.46875 11.007812 -16.671875 10.09375 -16.671875 L 6.40625 -16.671875 L 6.40625 -11.765625 Z M 10.8125 -3.0625 C 12.9375 -3.0625 14 -4.03125 14 -5.96875 C 14 -7.914062 12.9375 -8.890625 10.8125 -8.890625 L 6.40625 -8.890625 L 6.40625 -3.0625 Z M 10.8125 -3.0625 "></path></g></g></g><g fill="#000000" fill-opacity="1"><g transform="translate(125.448891, 51.8403)"><g><path d="M 18.78125 0 L 14.71875 0 L 13.25 -4.515625 L 5.75 -4.515625 L 4.265625 0 L 0.296875 0 L 7.0625 -19.578125 L 12.03125 -19.578125 Z M 9.3125 -15.484375 L 6.78125 -7.765625 L 12.171875 -7.765625 L 9.640625 -15.484375 Z M 9.3125 -15.484375 "></path></g></g></g><g fill="#000000" fill-opacity="1"><g transform="translate(142.056315, 51.8403)"><g><path d="M 2.546875 0 L 2.546875 -19.578125 L 10.40625 -19.578125 C 12.425781 -19.578125 13.953125 -19.109375 14.984375 -18.171875 C 16.015625 -17.242188 16.53125 -15.957031 16.53125 -14.3125 C 16.53125 -13.125 16.226562 -12.148438 15.625 -11.390625 C 15.03125 -10.628906 14.132812 -10.050781 12.9375 -9.65625 L 12.9375 -9.375 C 13.550781 -9.101562 14.046875 -8.703125 14.421875 -8.171875 C 14.804688 -7.648438 15.164062 -6.875 15.5 -5.84375 L 17.453125 0 L 13.484375 0 L 11.5625 -5.84375 C 11.375 -6.4375 11.15625 -6.894531 10.90625 -7.21875 C 10.65625 -7.550781 10.34375 -7.789062 9.96875 -7.9375 C 9.59375 -8.082031 9.097656 -8.15625 8.484375 -8.15625 L 6.40625 -8.15625 L 6.40625 0 Z M 9.9375 -11.21875 C 11.8125 -11.21875 12.75 -12.09375 12.75 -13.84375 C 12.75 -15.625 11.8125 -16.515625 9.9375 -16.515625 L 6.40625 -16.515625 L 6.40625 -11.21875 Z M 9.9375 -11.21875 "></path></g></g></g><g fill="#000000" fill-opacity="1"><g transform="translate(157.887293, 51.8403)"><g><path d="M 10.703125 0.28125 C 8.898438 0.28125 7.3125 -0.09375 5.9375 -0.84375 C 4.5625 -1.59375 3.484375 -2.71875 2.703125 -4.21875 C 1.929688 -5.726562 1.546875 -7.582031 1.546875 -9.78125 C 1.546875 -11.988281 1.929688 -13.84375 2.703125 -15.34375 C 3.484375 -16.851562 4.5625 -17.984375 5.9375 -18.734375 C 7.3125 -19.484375 8.898438 -19.859375 10.703125 -19.859375 C 12.585938 -19.859375 14.1875 -19.488281 15.5 -18.75 C 16.8125 -18.007812 17.75 -16.890625 18.3125 -15.390625 L 15.484375 -13.65625 L 15.15625 -13.671875 C 14.738281 -14.691406 14.171875 -15.421875 13.453125 -15.859375 C 12.734375 -16.296875 11.816406 -16.515625 10.703125 -16.515625 C 9.078125 -16.515625 7.804688 -15.976562 6.890625 -14.90625 C 5.984375 -13.832031 5.53125 -12.125 5.53125 -9.78125 C 5.53125 -7.457031 5.984375 -5.753906 6.890625 -4.671875 C 7.804688 -3.597656 9.078125 -3.0625 10.703125 -3.0625 C 13.242188 -3.0625 14.800781 -4.300781 15.375 -6.78125 L 15.703125 -6.78125 L 18.5625 -5.28125 C 18.019531 -3.425781 17.101562 -2.035156 15.8125 -1.109375 C 14.519531 -0.179688 12.816406 0.28125 10.703125 0.28125 Z M 10.703125 0.28125 "></path></g></g></g><g fill="#000000" fill-opacity="1"><g transform="translate(174.615199, 51.8403)"><g><path d="M 6.40625 -8.59375 L 6.40625 -3.234375 L 15.765625 -3.234375 L 15.765625 0 L 2.546875 0 L 2.546875 -19.578125 L 15.546875 -19.578125 L 15.546875 -16.328125 L 6.40625 -16.328125 L 6.40625 -11.75 L 14.390625 -11.75 L 14.390625 -8.59375 Z M 6.40625 -8.59375 "></path></g></g></g><g fill="#000000" fill-opacity="1"><g transform="translate(188.97361, 51.8403)"><g><path d="M 6.40625 -19.578125 L 6.40625 -3.234375 L 15.203125 -3.234375 L 15.203125 0 L 2.546875 0 L 2.546875 -19.578125 Z M 6.40625 -19.578125 "></path></g></g></g><g fill="#000000" fill-opacity="1"><g transform="translate(202.354772, 51.8403)"><g><path d="M 10.671875 0.28125 C 8.878906 0.28125 7.296875 -0.0820312 5.921875 -0.8125 C 4.554688 -1.550781 3.484375 -2.671875 2.703125 -4.171875 C 1.929688 -5.671875 1.546875 -7.539062 1.546875 -9.78125 C 1.546875 -12.03125 1.929688 -13.90625 2.703125 -15.40625 C 3.484375 -16.90625 4.554688 -18.019531 5.921875 -18.75 C 7.296875 -19.488281 8.878906 -19.859375 10.671875 -19.859375 C 12.460938 -19.859375 14.039062 -19.492188 15.40625 -18.765625 C 16.769531 -18.035156 17.835938 -16.914062 18.609375 -15.40625 C 19.390625 -13.90625 19.78125 -12.03125 19.78125 -9.78125 C 19.78125 -7.539062 19.390625 -5.664062 18.609375 -4.15625 C 17.835938 -2.65625 16.769531 -1.539062 15.40625 -0.8125 C 14.039062 -0.0820312 12.460938 0.28125 10.671875 0.28125 Z M 10.671875 -3.078125 C 12.328125 -3.078125 13.59375 -3.609375 14.46875 -4.671875 C 15.34375 -5.742188 15.78125 -7.445312 15.78125 -9.78125 C 15.78125 -12.125 15.34375 -13.832031 14.46875 -14.90625 C 13.59375 -15.976562 12.328125 -16.515625 10.671875 -16.515625 C 9.003906 -16.515625 7.726562 -15.976562 6.84375 -14.90625 C 5.96875 -13.832031 5.53125 -12.125 5.53125 -9.78125 C 5.53125 -7.445312 5.96875 -5.742188 6.84375 -4.671875 C 7.726562 -3.609375 9.003906 -3.078125 10.671875 -3.078125 Z M 10.671875 -3.078125 "></path></g></g></g><g fill="#000000" fill-opacity="1"><g transform="translate(221.211208, 51.8403)"><g><path d="M 6.296875 0 L 2.546875 0 L 2.546875 -19.578125 L 6.96875 -19.578125 L 14.828125 -6.96875 L 15.1875 -7.015625 L 15.1875 -19.578125 L 18.90625 -19.578125 L 18.90625 0 L 14.9375 0 L 6.625 -13.46875 L 6.296875 -13.421875 Z M 6.296875 0 "></path></g></g></g><g fill="#000000" fill-opacity="1"><g transform="translate(240.201513, 51.8403)"><g><path d="M 18.78125 0 L 14.71875 0 L 13.25 -4.515625 L 5.75 -4.515625 L 4.265625 0 L 0.296875 0 L 7.0625 -19.578125 L 12.03125 -19.578125 Z M 9.3125 -15.484375 L 6.78125 -7.765625 L 12.171875 -7.765625 L 9.640625 -15.484375 Z M 9.3125 -15.484375 "></path></g></g></g><g clip-path="url(#01c96c3dde)"><g clip-path="url(#d01e789063)"><g clip-path="url(#d7bcd51ef2)"><path fill="#ffbd59" d="M 145.953125 25.808594 L 107.957031 26.007812 L 134.839844 17.449219 C 138.246094 16.363281 141.941406 17.910156 143.5625 21.097656 Z M 145.953125 25.808594 " fill-opacity="1" fill-rule="nonzero"></path></g></g></g><g clip-path="url(#f1d7da1ff5)"><g clip-path="url(#edfe32934e)"><g clip-path="url(#6bc3641092)"><path fill="#000000" d="M 138.515625 1.886719 L 139.285156 7.398438 C 139.757812 10.78125 137.710938 14.003906 134.445312 15.011719 L 107.21875 23.429688 Z M 138.515625 1.886719 " fill-opacity="1" fill-rule="nonzero"></path></g></g></g><g fill="#ffbd59" fill-opacity="1"><g transform="translate(64.028215, 62.294822)"><g><path d="M 3.203125 -2.078125 C 3.460938 -2.023438 3.664062 -1.910156 3.8125 -1.734375 C 3.957031 -1.566406 4.03125 -1.347656 4.03125 -1.078125 C 4.03125 -0.734375 3.898438 -0.46875 3.640625 -0.28125 C 3.390625 -0.09375 3.015625 0 2.515625 0 L 0.65625 0 L 0.65625 -4.03125 L 2.40625 -4.03125 C 2.851562 -4.03125 3.195312 -3.941406 3.4375 -3.765625 C 3.6875 -3.585938 3.8125 -3.332031 3.8125 -3 C 3.8125 -2.769531 3.753906 -2.578125 3.640625 -2.421875 C 3.535156 -2.273438 3.390625 -2.160156 3.203125 -2.078125 Z M 1.078125 -3.6875 L 1.078125 -2.21875 L 2.375 -2.21875 C 2.695312 -2.21875 2.945312 -2.28125 3.125 -2.40625 C 3.300781 -2.53125 3.390625 -2.710938 3.390625 -2.953125 C 3.390625 -3.191406 3.300781 -3.375 3.125 -3.5 C 2.945312 -3.625 2.695312 -3.6875 2.375 -3.6875 Z M 2.515625 -0.359375 C 2.867188 -0.359375 3.140625 -0.414062 3.328125 -0.53125 C 3.515625 -0.65625 3.609375 -0.847656 3.609375 -1.109375 C 3.609375 -1.617188 3.242188 -1.875 2.515625 -1.875 L 1.078125 -1.875 L 1.078125 -0.359375 Z M 2.515625 -0.359375 "></path></g></g></g><g fill="#ffbd59" fill-opacity="1"><g transform="translate(69.317248, 62.294822)"><g><path d="M 3.1875 -1.078125 L 0.9375 -1.078125 L 0.453125 0 L 0.015625 0 L 1.859375 -4.03125 L 2.28125 -4.03125 L 4.125 0 L 3.671875 0 Z M 3.03125 -1.421875 L 2.0625 -3.59375 L 1.09375 -1.421875 Z M 3.03125 -1.421875 "></path></g></g></g><g fill="#ffbd59" fill-opacity="1"><g transform="translate(74.393107, 62.294822)"><g><path d="M 3.40625 0 L 2.484375 -1.296875 C 2.378906 -1.285156 2.273438 -1.28125 2.171875 -1.28125 L 1.078125 -1.28125 L 1.078125 0 L 0.65625 0 L 0.65625 -4.03125 L 2.171875 -4.03125 C 2.679688 -4.03125 3.082031 -3.90625 3.375 -3.65625 C 3.664062 -3.414062 3.8125 -3.082031 3.8125 -2.65625 C 3.8125 -2.332031 3.734375 -2.0625 3.578125 -1.84375 C 3.421875 -1.632812 3.191406 -1.484375 2.890625 -1.390625 L 3.875 0 Z M 2.15625 -1.640625 C 2.550781 -1.640625 2.851562 -1.726562 3.0625 -1.90625 C 3.28125 -2.082031 3.390625 -2.332031 3.390625 -2.65625 C 3.390625 -2.976562 3.28125 -3.226562 3.0625 -3.40625 C 2.851562 -3.582031 2.550781 -3.671875 2.15625 -3.671875 L 1.078125 -3.671875 L 1.078125 -1.640625 Z M 2.15625 -1.640625 "></path></g></g></g><g fill="#ffbd59" fill-opacity="1"><g transform="translate(79.50353, 62.294822)"><g><path d="M 2.40625 0.03125 C 2.007812 0.03125 1.648438 -0.0546875 1.328125 -0.234375 C 1.003906 -0.410156 0.75 -0.65625 0.5625 -0.96875 C 0.382812 -1.28125 0.296875 -1.628906 0.296875 -2.015625 C 0.296875 -2.398438 0.382812 -2.75 0.5625 -3.0625 C 0.75 -3.382812 1.003906 -3.632812 1.328125 -3.8125 C 1.648438 -3.988281 2.015625 -4.078125 2.421875 -4.078125 C 2.710938 -4.078125 2.984375 -4.023438 3.234375 -3.921875 C 3.492188 -3.816406 3.710938 -3.671875 3.890625 -3.484375 L 3.625 -3.21875 C 3.300781 -3.53125 2.898438 -3.6875 2.421875 -3.6875 C 2.109375 -3.6875 1.820312 -3.613281 1.5625 -3.46875 C 1.300781 -3.320312 1.09375 -3.117188 0.9375 -2.859375 C 0.789062 -2.609375 0.71875 -2.328125 0.71875 -2.015625 C 0.71875 -1.703125 0.789062 -1.414062 0.9375 -1.15625 C 1.09375 -0.90625 1.300781 -0.707031 1.5625 -0.5625 C 1.820312 -0.414062 2.109375 -0.34375 2.421875 -0.34375 C 2.910156 -0.34375 3.3125 -0.503906 3.625 -0.828125 L 3.890625 -0.5625 C 3.710938 -0.363281 3.492188 -0.210938 3.234375 -0.109375 C 2.984375 -0.015625 2.707031 0.03125 2.40625 0.03125 Z M 2.40625 0.03125 "></path></g></g></g><g fill="#ffbd59" fill-opacity="1"><g transform="translate(84.590915, 62.294822)"><g><path d="M 3.515625 -0.375 L 3.515625 0 L 0.65625 0 L 0.65625 -4.03125 L 3.421875 -4.03125 L 3.421875 -3.671875 L 1.078125 -3.671875 L 1.078125 -2.234375 L 3.171875 -2.234375 L 3.171875 -1.875 L 1.078125 -1.875 L 1.078125 -0.375 Z M 3.515625 -0.375 "></path></g></g></g><g fill="#ffbd59" fill-opacity="1"><g transform="translate(89.390224, 62.294822)"><g><path d="M 0.65625 -4.03125 L 1.078125 -4.03125 L 1.078125 -0.375 L 3.34375 -0.375 L 3.34375 0 L 0.65625 0 Z M 0.65625 -4.03125 "></path></g></g></g><g fill="#ffbd59" fill-opacity="1"><g transform="translate(93.728615, 62.294822)"><g><path d="M 2.421875 0.03125 C 2.023438 0.03125 1.660156 -0.0546875 1.328125 -0.234375 C 1.003906 -0.410156 0.75 -0.65625 0.5625 -0.96875 C 0.382812 -1.28125 0.296875 -1.628906 0.296875 -2.015625 C 0.296875 -2.398438 0.382812 -2.75 0.5625 -3.0625 C 0.75 -3.375 1.003906 -3.617188 1.328125 -3.796875 C 1.660156 -3.984375 2.023438 -4.078125 2.421875 -4.078125 C 2.816406 -4.078125 3.175781 -3.988281 3.5 -3.8125 C 3.820312 -3.632812 4.070312 -3.382812 4.25 -3.0625 C 4.4375 -2.75 4.53125 -2.398438 4.53125 -2.015625 C 4.53125 -1.628906 4.4375 -1.28125 4.25 -0.96875 C 4.070312 -0.65625 3.820312 -0.410156 3.5 -0.234375 C 3.175781 -0.0546875 2.816406 0.03125 2.421875 0.03125 Z M 2.421875 -0.34375 C 2.742188 -0.34375 3.03125 -0.414062 3.28125 -0.5625 C 3.539062 -0.707031 3.742188 -0.90625 3.890625 -1.15625 C 4.035156 -1.414062 4.109375 -1.703125 4.109375 -2.015625 C 4.109375 -2.328125 4.035156 -2.609375 3.890625 -2.859375 C 3.742188 -3.117188 3.539062 -3.320312 3.28125 -3.46875 C 3.03125 -3.613281 2.742188 -3.6875 2.421875 -3.6875 C 2.097656 -3.6875 1.804688 -3.613281 1.546875 -3.46875 C 1.296875 -3.320312 1.09375 -3.117188 0.9375 -2.859375 C 0.789062 -2.609375 0.71875 -2.328125 0.71875 -2.015625 C 0.71875 -1.703125 0.789062 -1.414062 0.9375 -1.15625 C 1.09375 -0.90625 1.296875 -0.707031 1.546875 -0.5625 C 1.804688 -0.414062 2.097656 -0.34375 2.421875 -0.34375 Z M 2.421875 -0.34375 "></path></g></g></g><g fill="#ffbd59" fill-opacity="1"><g transform="translate(99.507373, 62.294822)"><g><path d="M 4.03125 -4.03125 L 4.03125 0 L 3.671875 0 L 1.078125 -3.28125 L 1.078125 0 L 0.65625 0 L 0.65625 -4.03125 L 1.015625 -4.03125 L 3.609375 -0.765625 L 3.609375 -4.03125 Z M 4.03125 -4.03125 "></path></g></g></g><g fill="#ffbd59" fill-opacity="1"><g transform="translate(105.136336, 62.294822)"><g><path d="M 3.1875 -1.078125 L 0.9375 -1.078125 L 0.453125 0 L 0.015625 0 L 1.859375 -4.03125 L 2.28125 -4.03125 L 4.125 0 L 3.671875 0 Z M 3.03125 -1.421875 L 2.0625 -3.59375 L 1.09375 -1.421875 Z M 3.03125 -1.421875 "></path></g></g></g><g fill="#ffbd59" fill-opacity="1"><g transform="translate(110.212197, 62.294822)"><g></g></g></g><g fill="#ffbd59" fill-opacity="1"><g transform="translate(112.666584, 62.294822)"><g><path d="M 2.421875 0.03125 C 2.023438 0.03125 1.660156 -0.0546875 1.328125 -0.234375 C 1.003906 -0.410156 0.75 -0.65625 0.5625 -0.96875 C 0.382812 -1.28125 0.296875 -1.628906 0.296875 -2.015625 C 0.296875 -2.398438 0.382812 -2.75 0.5625 -3.0625 C 0.75 -3.375 1.003906 -3.617188 1.328125 -3.796875 C 1.660156 -3.984375 2.023438 -4.078125 2.421875 -4.078125 C 2.816406 -4.078125 3.175781 -3.988281 3.5 -3.8125 C 3.820312 -3.632812 4.070312 -3.382812 4.25 -3.0625 C 4.4375 -2.75 4.53125 -2.398438 4.53125 -2.015625 C 4.53125 -1.628906 4.4375 -1.28125 4.25 -0.96875 C 4.070312 -0.65625 3.820312 -0.410156 3.5 -0.234375 C 3.175781 -0.0546875 2.816406 0.03125 2.421875 0.03125 Z M 2.421875 -0.34375 C 2.742188 -0.34375 3.03125 -0.414062 3.28125 -0.5625 C 3.539062 -0.707031 3.742188 -0.90625 3.890625 -1.15625 C 4.035156 -1.414062 4.109375 -1.703125 4.109375 -2.015625 C 4.109375 -2.328125 4.035156 -2.609375 3.890625 -2.859375 C 3.742188 -3.117188 3.539062 -3.320312 3.28125 -3.46875 C 3.03125 -3.613281 2.742188 -3.6875 2.421875 -3.6875 C 2.097656 -3.6875 1.804688 -3.613281 1.546875 -3.46875 C 1.296875 -3.320312 1.09375 -3.117188 0.9375 -2.859375 C 0.789062 -2.609375 0.71875 -2.328125 0.71875 -2.015625 C 0.71875 -1.703125 0.789062 -1.414062 0.9375 -1.15625 C 1.09375 -0.90625 1.296875 -0.707031 1.546875 -0.5625 C 1.804688 -0.414062 2.097656 -0.34375 2.421875 -0.34375 Z M 2.421875 -0.34375 "></path></g></g></g><g fill="#ffbd59" fill-opacity="1"><g transform="translate(118.445343, 62.294822)"><g><path d="M 1.078125 -3.671875 L 1.078125 -2.078125 L 3.171875 -2.078125 L 3.171875 -1.71875 L 1.078125 -1.71875 L 1.078125 0 L 0.65625 0 L 0.65625 -4.03125 L 3.421875 -4.03125 L 3.421875 -3.671875 Z M 1.078125 -3.671875 "></path></g></g></g><g fill="#ffbd59" fill-opacity="1"><g transform="translate(123.037237, 62.294822)"><g><path d="M 1.078125 -3.671875 L 1.078125 -2.078125 L 3.171875 -2.078125 L 3.171875 -1.71875 L 1.078125 -1.71875 L 1.078125 0 L 0.65625 0 L 0.65625 -4.03125 L 3.421875 -4.03125 L 3.421875 -3.671875 Z M 1.078125 -3.671875 "></path></g></g></g><g fill="#ffbd59" fill-opacity="1"><g transform="translate(127.629128, 62.294822)"><g><path d="M 0.65625 -4.03125 L 1.078125 -4.03125 L 1.078125 0 L 0.65625 0 Z M 0.65625 -4.03125 "></path></g></g></g><g fill="#ffbd59" fill-opacity="1"><g transform="translate(130.313971, 62.294822)"><g><path d="M 2.40625 0.03125 C 2.007812 0.03125 1.648438 -0.0546875 1.328125 -0.234375 C 1.003906 -0.410156 0.75 -0.65625 0.5625 -0.96875 C 0.382812 -1.28125 0.296875 -1.628906 0.296875 -2.015625 C 0.296875 -2.398438 0.382812 -2.75 0.5625 -3.0625 C 0.75 -3.382812 1.003906 -3.632812 1.328125 -3.8125 C 1.648438 -3.988281 2.015625 -4.078125 2.421875 -4.078125 C 2.710938 -4.078125 2.984375 -4.023438 3.234375 -3.921875 C 3.492188 -3.816406 3.710938 -3.671875 3.890625 -3.484375 L 3.625 -3.21875 C 3.300781 -3.53125 2.898438 -3.6875 2.421875 -3.6875 C 2.109375 -3.6875 1.820312 -3.613281 1.5625 -3.46875 C 1.300781 -3.320312 1.09375 -3.117188 0.9375 -2.859375 C 0.789062 -2.609375 0.71875 -2.328125 0.71875 -2.015625 C 0.71875 -1.703125 0.789062 -1.414062 0.9375 -1.15625 C 1.09375 -0.90625 1.300781 -0.707031 1.5625 -0.5625 C 1.820312 -0.414062 2.109375 -0.34375 2.421875 -0.34375 C 2.910156 -0.34375 3.3125 -0.503906 3.625 -0.828125 L 3.890625 -0.5625 C 3.710938 -0.363281 3.492188 -0.210938 3.234375 -0.109375 C 2.984375 -0.015625 2.707031 0.03125 2.40625 0.03125 Z M 2.40625 0.03125 "></path></g></g></g><g fill="#ffbd59" fill-opacity="1"><g transform="translate(135.401355, 62.294822)"><g><path d="M 0.65625 -4.03125 L 1.078125 -4.03125 L 1.078125 0 L 0.65625 0 Z M 0.65625 -4.03125 "></path></g></g></g><g fill="#ffbd59" fill-opacity="1"><g transform="translate(138.086199, 62.294822)"><g><path d="M 3.1875 -1.078125 L 0.9375 -1.078125 L 0.453125 0 L 0.015625 0 L 1.859375 -4.03125 L 2.28125 -4.03125 L 4.125 0 L 3.671875 0 Z M 3.03125 -1.421875 L 2.0625 -3.59375 L 1.09375 -1.421875 Z M 3.03125 -1.421875 "></path></g></g></g><g fill="#ffbd59" fill-opacity="1"><g transform="translate(143.162059, 62.294822)"><g><path d="M 0.65625 -4.03125 L 1.078125 -4.03125 L 1.078125 -0.375 L 3.34375 -0.375 L 3.34375 0 L 0.65625 0 Z M 0.65625 -4.03125 "></path></g></g></g><g fill="#ffbd59" fill-opacity="1"><g transform="translate(147.50045, 62.294822)"><g></g></g></g><g fill="#ffbd59" fill-opacity="1"><g transform="translate(149.954838, 62.294822)"><g><path d="M 1.4375 -3.671875 L 0.015625 -3.671875 L 0.015625 -4.03125 L 3.28125 -4.03125 L 3.28125 -3.671875 L 1.875 -3.671875 L 1.875 0 L 1.4375 0 Z M 1.4375 -3.671875 "></path></g></g></g><g fill="#ffbd59" fill-opacity="1"><g transform="translate(154.206804, 62.294822)"><g><path d="M 3.1875 -1.078125 L 0.9375 -1.078125 L 0.453125 0 L 0.015625 0 L 1.859375 -4.03125 L 2.28125 -4.03125 L 4.125 0 L 3.671875 0 Z M 3.03125 -1.421875 L 2.0625 -3.59375 L 1.09375 -1.421875 Z M 3.03125 -1.421875 "></path></g></g></g><g fill="#ffbd59" fill-opacity="1"><g transform="translate(159.282664, 62.294822)"><g><path d="M 3.1875 0 L 1.890625 -1.78125 L 0.59375 0 L 0.09375 0 L 1.625 -2.078125 L 0.203125 -4.03125 L 0.6875 -4.03125 L 1.90625 -2.390625 L 3.109375 -4.03125 L 3.578125 -4.03125 L 2.140625 -2.09375 L 3.6875 0 Z M 3.1875 0 "></path></g></g></g><g fill="#ffbd59" fill-opacity="1"><g transform="translate(164.007072, 62.294822)"><g><path d="M 0.65625 -4.03125 L 1.078125 -4.03125 L 1.078125 0 L 0.65625 0 Z M 0.65625 -4.03125 "></path></g></g></g><g fill="#ffbd59" fill-opacity="1"><g transform="translate(166.691915, 62.294822)"><g></g></g></g><g fill="#ffbd59" fill-opacity="1"><g transform="translate(169.146303, 62.294822)"><g><path d="M 1.765625 0.03125 C 1.472656 0.03125 1.1875 -0.015625 0.90625 -0.109375 C 0.632812 -0.203125 0.421875 -0.328125 0.265625 -0.484375 L 0.4375 -0.8125 C 0.582031 -0.664062 0.773438 -0.546875 1.015625 -0.453125 C 1.265625 -0.367188 1.515625 -0.328125 1.765625 -0.328125 C 2.128906 -0.328125 2.398438 -0.390625 2.578125 -0.515625 C 2.765625 -0.648438 2.859375 -0.828125 2.859375 -1.046875 C 2.859375 -1.203125 2.804688 -1.328125 2.703125 -1.421875 C 2.609375 -1.523438 2.488281 -1.601562 2.34375 -1.65625 C 2.207031 -1.707031 2.007812 -1.765625 1.75 -1.828125 C 1.445312 -1.898438 1.203125 -1.972656 1.015625 -2.046875 C 0.835938 -2.117188 0.6875 -2.226562 0.5625 -2.375 C 0.4375 -2.519531 0.375 -2.71875 0.375 -2.96875 C 0.375 -3.164062 0.425781 -3.347656 0.53125 -3.515625 C 0.632812 -3.679688 0.796875 -3.816406 1.015625 -3.921875 C 1.242188 -4.023438 1.523438 -4.078125 1.859375 -4.078125 C 2.085938 -4.078125 2.3125 -4.039062 2.53125 -3.96875 C 2.75 -3.90625 2.941406 -3.820312 3.109375 -3.71875 L 2.96875 -3.375 C 2.789062 -3.488281 2.609375 -3.570312 2.421875 -3.625 C 2.234375 -3.675781 2.046875 -3.703125 1.859375 -3.703125 C 1.503906 -3.703125 1.238281 -3.632812 1.0625 -3.5 C 0.882812 -3.363281 0.796875 -3.1875 0.796875 -2.96875 C 0.796875 -2.8125 0.84375 -2.679688 0.9375 -2.578125 C 1.03125 -2.484375 1.148438 -2.410156 1.296875 -2.359375 C 1.453125 -2.304688 1.65625 -2.25 1.90625 -2.1875 C 2.195312 -2.113281 2.429688 -2.039062 2.609375 -1.96875 C 2.796875 -1.90625 2.953125 -1.800781 3.078125 -1.65625 C 3.210938 -1.507812 3.28125 -1.3125 3.28125 -1.0625 C 3.28125 -0.863281 3.222656 -0.679688 3.109375 -0.515625 C 3.003906 -0.347656 2.835938 -0.210938 2.609375 -0.109375 C 2.378906 -0.015625 2.097656 0.03125 1.765625 0.03125 Z M 1.765625 0.03125 "></path></g></g></g><g fill="#ffbd59" fill-opacity="1"><g transform="translate(173.63449, 62.294822)"><g><path d="M 3.515625 -0.375 L 3.515625 0 L 0.65625 0 L 0.65625 -4.03125 L 3.421875 -4.03125 L 3.421875 -3.671875 L 1.078125 -3.671875 L 1.078125 -2.234375 L 3.171875 -2.234375 L 3.171875 -1.875 L 1.078125 -1.875 L 1.078125 -0.375 Z M 3.515625 -0.375 "></path></g></g></g><g fill="#ffbd59" fill-opacity="1"><g transform="translate(178.433799, 62.294822)"><g><path d="M 3.40625 0 L 2.484375 -1.296875 C 2.378906 -1.285156 2.273438 -1.28125 2.171875 -1.28125 L 1.078125 -1.28125 L 1.078125 0 L 0.65625 0 L 0.65625 -4.03125 L 2.171875 -4.03125 C 2.679688 -4.03125 3.082031 -3.90625 3.375 -3.65625 C 3.664062 -3.414062 3.8125 -3.082031 3.8125 -2.65625 C 3.8125 -2.332031 3.734375 -2.0625 3.578125 -1.84375 C 3.421875 -1.632812 3.191406 -1.484375 2.890625 -1.390625 L 3.875 0 Z M 2.15625 -1.640625 C 2.550781 -1.640625 2.851562 -1.726562 3.0625 -1.90625 C 3.28125 -2.082031 3.390625 -2.332031 3.390625 -2.65625 C 3.390625 -2.976562 3.28125 -3.226562 3.0625 -3.40625 C 2.851562 -3.582031 2.550781 -3.671875 2.15625 -3.671875 L 1.078125 -3.671875 L 1.078125 -1.640625 Z M 2.15625 -1.640625 "></path></g></g></g><g fill="#ffbd59" fill-opacity="1"><g transform="translate(183.544224, 62.294822)"><g><path d="M 4.015625 -4.03125 L 2.21875 0 L 1.796875 0 L 0.015625 -4.03125 L 0.484375 -4.03125 L 2.03125 -0.53125 L 3.578125 -4.03125 Z M 4.015625 -4.03125 "></path></g></g></g><g fill="#ffbd59" fill-opacity="1"><g transform="translate(188.510611, 62.294822)"><g><path d="M 0.65625 -4.03125 L 1.078125 -4.03125 L 1.078125 0 L 0.65625 0 Z M 0.65625 -4.03125 "></path></g></g></g><g fill="#ffbd59" fill-opacity="1"><g transform="translate(191.195447, 62.294822)"><g><path d="M 2.40625 0.03125 C 2.007812 0.03125 1.648438 -0.0546875 1.328125 -0.234375 C 1.003906 -0.410156 0.75 -0.65625 0.5625 -0.96875 C 0.382812 -1.28125 0.296875 -1.628906 0.296875 -2.015625 C 0.296875 -2.398438 0.382812 -2.75 0.5625 -3.0625 C 0.75 -3.382812 1.003906 -3.632812 1.328125 -3.8125 C 1.648438 -3.988281 2.015625 -4.078125 2.421875 -4.078125 C 2.710938 -4.078125 2.984375 -4.023438 3.234375 -3.921875 C 3.492188 -3.816406 3.710938 -3.671875 3.890625 -3.484375 L 3.625 -3.21875 C 3.300781 -3.53125 2.898438 -3.6875 2.421875 -3.6875 C 2.109375 -3.6875 1.820312 -3.613281 1.5625 -3.46875 C 1.300781 -3.320312 1.09375 -3.117188 0.9375 -2.859375 C 0.789062 -2.609375 0.71875 -2.328125 0.71875 -2.015625 C 0.71875 -1.703125 0.789062 -1.414062 0.9375 -1.15625 C 1.09375 -0.90625 1.300781 -0.707031 1.5625 -0.5625 C 1.820312 -0.414062 2.109375 -0.34375 2.421875 -0.34375 C 2.910156 -0.34375 3.3125 -0.503906 3.625 -0.828125 L 3.890625 -0.5625 C 3.710938 -0.363281 3.492188 -0.210938 3.234375 -0.109375 C 2.984375 -0.015625 2.707031 0.03125 2.40625 0.03125 Z M 2.40625 0.03125 "></path></g></g></g><g fill="#ffbd59" fill-opacity="1"><g transform="translate(196.282832, 62.294822)"><g><path d="M 3.515625 -0.375 L 3.515625 0 L 0.65625 0 L 0.65625 -4.03125 L 3.421875 -4.03125 L 3.421875 -3.671875 L 1.078125 -3.671875 L 1.078125 -2.234375 L 3.171875 -2.234375 L 3.171875 -1.875 L 1.078125 -1.875 L 1.078125 -0.375 Z M 3.515625 -0.375 "></path></g></g></g></svg> 